<svg xmlns="http://www.w3.org/2000/svg" width="560" height="760" viewBox="0 0 560 760">
<path d="M74 760 Q70 540 164 448 Q228 402 280 400 Q332 402 396 448 Q490 540 486 760 Z" fill="#e9e6dc" stroke="#0c0c12" stroke-opacity="0.55" stroke-width="3.4"/><path d="M336 416 Q456 502 454 760 L486 760 Q490 540 396 448 Q366 426 336 416 Z" fill="#000000" fill-opacity="0.1"/><path d="M196 480 L258 404 L268 452 L224 540 Z" fill="#d3cec0" stroke="#0c0c12" stroke-opacity="0.55" stroke-width="3.4"/><path d="M364 480 L302 404 L292 452 L336 540 Z" fill="#d3cec0" stroke="#0c0c12" stroke-opacity="0.55" stroke-width="3.4"/><path d="M256 406 L280 452 L304 406 Q280 394 256 406 Z" fill="#ded4b8" stroke="#0c0c12" stroke-opacity="0.55" stroke-width="3.4"/><path d="M268 424 L280 452 L292 424 L296 760 L264 760 Z" fill="#ded4b8"/><rect x="150" y="600" width="56" height="66" fill="none" stroke="#d3cec0" stroke-width="4"/><rect x="162" y="586" width="8" height="28" fill="#3f5540"/><rect x="176" y="586" width="8" height="28" fill="#8a7a52"/><path d="M242 306 L246 376 L314 376 L318 306 Z" fill="#d1a575" stroke="#0c0c12" stroke-opacity="0.55" stroke-width="3.0"/><ellipse cx="180" cy="244" rx="16" ry="26" fill="#e6c096" stroke="#0c0c12" stroke-opacity="0.55" stroke-width="3.0"/><ellipse cx="380" cy="244" rx="16" ry="26" fill="#e6c096" stroke="#0c0c12" stroke-opacity="0.55" stroke-width="3.0"/><path d="M186 216 Q182 126 280 124 Q378 126 374 216 Q368 296 280 322 Q192 296 186 216 Z" fill="#e6c096" stroke="#0c0c12" stroke-opacity="0.55" stroke-width="3.4"/><path d="M320 132 Q376 146 372 226 Q366 292 288 320 Q350 266 344 196 Q340 146 320 132 Z" fill="#000000" fill-opacity="0.1"/><path d="M276 238 Q270 270 278 276 Q288 278 290 270" fill="none" stroke="#0c0c12" stroke-opacity="0.5" stroke-width="3"/><circle cx="280" cy="104" r="36" fill="#3b2d26" stroke="#0c0c12" stroke-opacity="0.55" stroke-width="3.4"/><path d="M180 240 Q170 144 280 114 Q390 144 380 240 Q360 178 310 152 Q250 152 200 178 Q184 196 180 240 Z" fill="#3b2d26" stroke="#0c0c12" stroke-opacity="0.55" stroke-width="3.4"/><line x1="176" y1="230" x2="214" y2="226" stroke="#8a7a52" stroke-width="5"/><line x1="384" y1="230" x2="346" y2="226" stroke="#8a7a52" stroke-width="5"/><path d="M266 224 Q280 214 294 224" fill="none" stroke="#8a7a52" stroke-width="6"/><circle cx="240" cy="230" r="34" fill="#101018" fill-opacity="0.96" stroke="#8a7a52" stroke-width="6"/><path d="M220 218 Q234 206 250 212 Q232 212 226 226 Z" fill="#b8c8d8" fill-opacity="0.5"/><circle cx="320" cy="230" r="34" fill="#101018" fill-opacity="0.96" stroke="#8a7a52" stroke-width="6"/><path d="M300 218 Q314 206 330 212 Q312 212 306 226 Z" fill="#b8c8d8" fill-opacity="0.5"/>
</svg>
