<svg xmlns="http://www.w3.org/2000/svg" width="560" height="760" viewBox="0 0 560 760">
<path d="M70 760 Q66 540 160 446 Q225 400 280 398 Q335 400 400 446 Q494 540 490 760 Z" fill="#c9b491" stroke="#0c0c12" stroke-opacity="0.55" stroke-width="3.4"/><path d="M340 414 Q460 500 458 760 L490 760 Q494 540 400 446 Q370 424 340 414 Z" fill="#000000" fill-opacity="0.14"/><path d="M186 470 L254 402 L262 448 L206 506 Z" fill="#af9a78" stroke="#0c0c12" stroke-opacity="0.55" stroke-width="3.4"/><path d="M374 470 L306 402 L298 448 L354 506 Z" fill="#af9a78" stroke="#0c0c12" stroke-opacity="0.55" stroke-width="3.4"/><path d="M252 404 L280 448 L308 404 Q280 392 252 404 Z" fill="#e8e0c8" stroke="#0c0c12" stroke-opacity="0.55" stroke-width="3.4"/><path d="M262 416 L280 448 L298 416 L306 520 L254 520 Z" fill="#3d4a3f"/><path d="M274 430 L286 430 L292 500 L280 516 L268 500 Z" fill="#2e3a30" stroke="#0c0c12" stroke-opacity="0.55" stroke-width="3.4"/><circle cx="232" cy="560" r="7" fill="#af9a78"/><circle cx="328" cy="560" r="7" fill="#af9a78"/><circle cx="232" cy="640" r="7" fill="#af9a78"/><circle cx="328" cy="640" r="7" fill="#af9a78"/><circle cx="232" cy="720" r="7" fill="#af9a78"/><circle cx="328" cy="720" r="7" fill="#af9a78"/><path d="M242 306 L246 376 L314 376 L318 306 Z" fill="#cda172" stroke="#0c0c12" stroke-opacity="0.55" stroke-width="3.0"/><ellipse cx="180" cy="244" rx="16" ry="26" fill="#e3bd92" stroke="#0c0c12" stroke-opacity="0.55" stroke-width="3.0"/><ellipse cx="380" cy="244" rx="16" ry="26" fill="#e3bd92" stroke="#0c0c12" stroke-opacity="0.55" stroke-width="3.0"/><path d="M186 216 Q182 126 280 124 Q378 126 374 216 Q368 296 280 322 Q192 296 186 216 Z" fill="#e3bd92" stroke="#0c0c12" stroke-opacity="0.55" stroke-width="3.4"/><path d="M320 132 Q376 146 372 226 Q366 292 288 320 Q350 266 344 196 Q340 146 320 132 Z" fill="#000000" fill-opacity="0.1"/><path d="M276 238 Q270 270 278 276 Q288 278 290 270" fill="none" stroke="#0c0c12" stroke-opacity="0.5" stroke-width="3"/><path d="M254 280 Q280 294 306 280 L298 314 Q280 326 262 314 Z" fill="#6b5c4c" stroke="#0c0c12" stroke-opacity="0.55" stroke-width="3"/><path d="M182 230 Q172 144 280 116 Q388 144 378 230 Q366 178 314 154 Q246 154 194 178 Q180 196 182 230 Z" fill="#6b5c4c" stroke="#0c0c12" stroke-opacity="0.55" stroke-width="3.4"/><line x1="176" y1="230" x2="214" y2="226" stroke="#8a7a52" stroke-width="5"/><line x1="384" y1="230" x2="346" y2="226" stroke="#8a7a52" stroke-width="5"/><path d="M266 224 Q280 214 294 224" fill="none" stroke="#8a7a52" stroke-width="6"/><circle cx="240" cy="230" r="34" fill="#101018" fill-opacity="0.96" stroke="#8a7a52" stroke-width="6"/><path d="M220 218 Q234 206 250 212 Q232 212 226 226 Z" fill="#b8c8d8" fill-opacity="0.5"/><circle cx="320" cy="230" r="34" fill="#101018" fill-opacity="0.96" stroke="#8a7a52" stroke-width="6"/><path d="M300 218 Q314 206 330 212 Q312 212 306 226 Z" fill="#b8c8d8" fill-opacity="0.5"/>
</svg>
